HIERARCHY
ROOT root
{
	OFFSET 0.000000 0.000000 0.000000
	CHANNELS 6 Xposition Yposition Zposition Zrotation Yrotation Xrotation
	JOINT lhip
	{
		OFFSET 0.058581 -0.082280 -0.017664
		CHANNELS 3 Zrotation Yrotation Xrotation
		JOINT lknee
		{
			OFFSET 0.043451 -0.386469 0.008037
			CHANNELS 3 Zrotation Yrotation Xrotation
			JOINT lankle
			{
				OFFSET -0.014790 -0.426874 -0.037428
				CHANNELS 3 Zrotation Yrotation Xrotation
				JOINT ltoe
				{
					OFFSET 0.041054 -0.060286 0.122042
					CHANNELS 3 Zrotation Yrotation Xrotation
					End Site
					{
						OFFSET 0.000000 0.000000 0.000000
					}
				}
			}
		}
	}
	JOINT rhip
	{
		OFFSET -0.060310 -0.090513 -0.013543
		CHANNELS 3 Zrotation Yrotation Xrotation
		JOINT rknee
		{
			OFFSET -0.043257 -0.383688 -0.004843
			CHANNELS 3 Zrotation Yrotation Xrotation
			JOINT rankle
			{
				OFFSET 0.019056 -0.420046 -0.034562
				CHANNELS 3 Zrotation Yrotation Xrotation
				JOINT rtoe
				{
					OFFSET -0.034840 -0.062106 0.130323
					CHANNELS 3 Zrotation Yrotation Xrotation
					End Site
					{
						OFFSET 0.000000 0.000000 0.000000
					}
				}
			}
		}
	}
	JOINT lowerback
	{
		OFFSET 0.004439 0.124404 -0.038385
		CHANNELS 3 Zrotation Yrotation Xrotation
		JOINT upperback
		{
			OFFSET 0.004488 0.137956 0.026820
			CHANNELS 3 Zrotation Yrotation Xrotation
			JOINT chest
			{
				OFFSET -0.002265 0.056032 0.002855
				CHANNELS 3 Zrotation Yrotation Xrotation
				JOINT lowerneck
				{
					OFFSET -0.013390 0.211636 -0.033468
					CHANNELS 3 Zrotation Yrotation Xrotation
					JOINT upperneck
					{
						OFFSET 0.010113 0.088937 0.050410
						CHANNELS 3 Zrotation Yrotation Xrotation
						End Site
						{
							OFFSET 0.000000 0.000000 0.000000
						}
					}
				}
				JOINT lclavicle
				{
					OFFSET 0.071702 0.114000 -0.018898
					CHANNELS 3 Zrotation Yrotation Xrotation
					JOINT lshoulder
					{
						OFFSET 0.122921 0.045205 -0.019046
						CHANNELS 3 Zrotation Yrotation Xrotation
						JOINT lelbow
						{
							OFFSET 0.255332 -0.015649 -0.022946
							CHANNELS 3 Zrotation Yrotation Xrotation
							JOINT lwrist
							{
								OFFSET 0.265709 0.012698 -0.007375
								CHANNELS 3 Zrotation Yrotation Xrotation
								End Site
								{
									OFFSET 0.000000 0.000000 0.000000
								}
							}
						}
					}
				}
				JOINT rclavicle
				{
					OFFSET -0.082954 0.112472 -0.023707
					CHANNELS 3 Zrotation Yrotation Xrotation
					JOINT rshoulder
					{
						OFFSET -0.113228 0.046853 -0.008472
						CHANNELS 3 Zrotation Yrotation Xrotation
						JOINT relbow
						{
							OFFSET -0.260127 -0.014369 -0.031269
							CHANNELS 3 Zrotation Yrotation Xrotation
							JOINT rwrist
							{
								OFFSET -0.269108 0.006794 -0.006027
								CHANNELS 3 Zrotation Yrotation Xrotation
								End Site
								{
									OFFSET 0.000000 0.000000 0.000000
								}
							}
						}
					}
				}
			}
		}
	}
}
MOTION
Frames: 13
Frame Time: 0.033333
1.118750 0.770983 0.989994 -84.899685 2.875066 90.306020 1.953975 -2.812381 -4.954572 -2.786910 -15.201240 14.440500 6.493232 8.553766 -20.289746 0.000000 -0.000000 0.000000 3.538717 1.363223 -5.496243 2.281056 1.976379 17.401789 2.724724 -7.845076 -15.483005 0.000000 -0.000000 0.000000 -1.859825 -0.398515 11.966592 2.135866 -3.834339 -1.546865 1.800807 -2.833623 4.018102 1.669294 -6.771673 -6.529361 -3.085354 -8.579255 -3.381594 -24.270794 5.246839 3.850323 -55.583868 -3.030388 8.204249 4.128194 -32.210540 13.779587 -3.021287 -1.429741 -8.082636 22.247435 -2.268786 0.577094 59.277337 -1.587881 10.912109 -12.756245 31.832538 -0.839648 4.783408 0.600894 -8.945990 
1.125847 0.773314 0.984870 -84.344763 2.749811 91.275745 1.658472 -4.745121 -9.838093 -3.836610 -14.067111 21.188744 6.626560 9.835117 -21.763993 0.000000 -0.000000 0.000000 3.513740 2.706713 -9.964430 2.248575 0.856810 23.183241 3.027465 -9.118993 -17.580034 0.000000 -0.000000 0.000000 -1.574984 -0.414992 14.076058 2.347986 -3.637306 -2.554375 1.532437 -3.054385 4.929276 3.556935 -7.494532 -9.227421 -2.468492 -10.521169 -1.952898 -24.235093 4.869260 3.181743 -55.019242 -3.523466 8.581157 4.683237 -32.073444 12.660519 -2.451825 -1.318796 -7.290291 22.147784 -2.316299 -0.509388 59.137556 -1.693324 11.453991 -13.178349 32.096268 -1.454703 4.378848 0.483317 -8.382936 
1.130962 0.776906 0.973896 -82.940248 3.375920 92.043857 2.793771 -6.188935 -15.614622 -5.747547 -12.814157 29.946734 5.262642 9.912524 -24.604170 0.000000 -0.000000 0.000000 4.309222 3.873596 -14.400750 1.668772 -1.144800 29.898504 3.355430 -9.985807 -20.818983 0.000000 -0.000000 0.000000 -0.940422 -0.834496 16.292262 3.314910 -3.927389 -1.886796 1.375777 -2.813707 3.304454 3.173107 -7.750542 -6.586894 -1.482705 -9.836187 -6.253216 -23.959848 4.317422 4.119515 -54.804050 -3.658026 8.533296 4.536721 -32.168749 12.942865 -0.966283 -1.673827 -10.107554 21.292070 -2.288236 0.007175 59.641883 -2.293884 11.349600 -14.037344 33.362275 -0.986132 2.498548 0.908710 -8.888489 
1.138650 0.780308 0.954316 -83.220079 3.127436 92.874955 3.592242 -6.892782 -21.692215 -7.733619 -10.019668 38.467659 5.622678 10.219586 -27.203772 0.000000 -0.000000 0.000000 3.448915 4.795259 -20.457625 1.851128 -2.475605 38.785147 3.402815 -9.779452 -24.311572 0.000000 -0.000000 0.000000 -1.144279 -0.385689 18.994003 3.583769 -3.403074 -2.731770 1.325573 -2.932298 3.296815 2.772883 -7.655211 -4.923097 -0.303202 -9.242736 -8.442301 -23.565449 4.053378 4.200128 -54.788585 -3.733950 8.352904 4.976689 -33.322552 12.446816 -0.506852 -0.968016 -11.707877 20.715891 -2.731286 -0.053818 59.572007 -2.062064 11.311757 -13.380311 35.010819 0.820189 2.760670 1.042889 -9.405932 
1.144685 0.783989 0.928863 -83.700735 2.991362 93.175741 4.658951 -6.982097 -27.098781 -9.400700 -7.094762 46.753798 6.260968 10.381946 -30.118649 0.000000 -0.000000 0.000000 2.572508 5.619329 -25.662348 2.109097 -3.835750 47.160589 3.175158 -9.538305 -27.698261 0.000000 -0.000000 0.000000 -1.521266 -0.009449 21.832693 3.730047 -2.914450 -3.350019 1.435256 -2.705029 3.085895 2.288785 -7.604370 -3.191111 0.788863 -8.536746 -10.423742 -23.610574 3.226984 4.699383 -54.754393 -3.660837 7.914442 5.799077 -34.430540 10.913062 0.212461 -0.301404 -13.098752 20.459129 -1.904188 0.648148 59.368421 -1.916109 10.920251 -13.334341 36.575158 1.118292 3.009232 1.051114 -10.678822 
1.151364 0.787334 0.899045 -83.574832 2.998158 93.837046 5.323754 -6.465794 -33.509572 -10.455073 -5.215267 55.938760 7.099066 10.281875 -32.781095 0.000000 -0.000000 0.000000 1.779747 5.434566 -31.356709 2.044359 -5.351142 55.785096 2.797294 -9.133865 -30.722036 0.000000 -0.000000 0.000000 -1.583955 -0.110154 24.017880 3.884783 -2.826850 -3.711535 1.337034 -2.523156 2.725393 1.929445 -7.634120 -1.272459 1.627705 -7.749862 -12.190281 -23.670865 2.519462 5.149809 -55.050386 -3.897672 7.379182 6.980840 -35.265054 9.841298 0.823160 0.816735 -14.018925 20.211635 -0.960213 1.420788 59.521939 -0.962476 10.430399 -13.304353 37.420124 1.863512 3.284552 0.860194 -11.849703 
1.155718 0.788959 0.868339 -83.605271 2.614158 94.261456 6.079868 -7.382660 -39.535796 -11.105090 -2.209164 64.777784 7.462751 10.392640 -34.510543 0.000000 -0.000000 0.000000 0.458213 5.397069 -36.608720 1.969950 -6.600461 64.151888 2.766610 -8.833892 -32.969638 0.000000 -0.000000 0.000000 -1.700963 -0.237173 26.668315 3.830991 -2.698986 -5.296263 1.039169 -2.643669 2.743942 2.243241 -7.319818 -1.132822 1.714387 -7.078576 -12.153693 -24.553481 2.172562 5.439603 -54.802008 -4.328348 6.907748 8.455401 -34.963092 8.270246 1.518702 0.756328 -13.929741 20.660344 -0.190847 2.000535 59.179563 0.411375 10.492284 -13.474599 37.238006 2.631245 3.329835 1.156248 -11.569071 
1.157723 0.790817 0.838282 -83.685314 2.636456 93.722855 6.972657 -7.619569 -43.568089 -11.448898 0.222689 72.108300 7.759083 10.694644 -36.398971 0.000000 -0.000000 0.000000 -0.397526 6.076240 -40.126622 1.560389 -8.222216 71.581974 2.741865 -9.182865 -35.343966 0.000000 -0.000000 0.000000 -1.652931 -0.127904 29.392480 3.863109 -2.449030 -5.686055 0.903042 -2.727058 2.168399 2.076421 -7.088969 0.125715 2.040633 -6.091331 -12.978131 -25.624864 0.653276 5.973621 -54.871526 -4.898522 6.190111 10.608147 -33.880137 5.844625 2.565468 1.162533 -13.898696 21.162892 1.469039 2.811807 58.912756 1.629929 10.155446 -14.425219 37.628800 2.358651 2.693929 0.926359 -11.647832 
1.157003 0.792011 0.811929 -83.067163 2.694712 93.606508 8.120555 -9.198360 -46.888706 -10.014774 2.547425 77.872835 7.085518 9.913542 -38.864209 0.000000 -0.000000 0.000000 -1.525250 6.224341 -43.234461 -0.053676 -10.395703 78.039045 2.783624 -8.448993 -37.190444 0.000000 -0.000000 0.000000 -1.443696 -0.434832 31.049438 3.436389 -2.886600 -5.840654 1.346468 -2.584059 -0.582276 -0.592197 -10.219666 6.512579 3.770555 -1.217163 -15.563619 -27.431062 -1.918892 9.407384 -55.145438 -4.915552 0.863978 12.922624 -33.139255 1.869789 -0.075809 1.627870 -9.691874 22.197892 4.418043 7.505283 57.576355 3.794089 5.589314 -13.021798 38.101998 2.307645 1.051803 0.484962 -9.849745 
1.154551 0.792655 0.791794 -82.790636 2.385626 92.757335 8.021452 -9.825825 -48.414897 -10.003178 3.420246 82.139313 7.198434 10.262100 -40.237870 0.000000 -0.000000 0.000000 -1.863342 5.457140 -44.660949 -0.353693 -10.238029 83.110979 3.271966 -8.515188 -37.784413 0.000000 -0.000000 0.000000 -1.838629 -0.348572 32.557611 3.404606 -3.020571 -6.413911 1.495701 -2.598559 -0.566765 -0.247268 -10.295928 6.345145 3.298301 -0.147708 -14.956711 -28.713281 -2.925523 9.553858 -55.010320 -6.084028 0.432052 14.009428 -31.575106 -0.762629 0.533160 2.421956 -10.002097 23.299444 6.152910 8.069271 56.065567 6.330573 5.805633 -13.039285 37.321764 1.914402 0.687768 0.359557 -8.279123 
1.150698 0.793290 0.781769 -82.498656 2.240824 92.027983 7.911782 -10.338051 -48.368995 -10.111547 3.798762 83.929408 7.300540 11.019307 -41.445012 0.000000 -0.000000 0.000000 -2.015176 5.323576 -44.838552 -0.524087 -10.403130 85.567559 3.492209 -8.860492 -38.037583 0.000000 -0.000000 0.000000 -1.954520 -0.416393 33.559046 3.116311 -2.742794 -7.807384 1.475800 -2.480627 0.061224 0.500725 -9.939645 4.806703 2.425935 0.488376 -13.418014 -29.439927 -3.407204 9.347094 -54.647508 -6.569429 0.941769 13.921769 -31.734161 -1.507095 1.654372 2.453894 -10.112002 23.749992 7.782673 7.916728 55.183434 8.379659 6.881319 -12.978098 36.694697 1.816934 -0.157165 0.945838 -6.507091 
1.145271 0.793593 0.783331 -81.766202 1.949216 91.318009 6.886913 -10.888168 -46.396051 -10.377405 2.763062 82.898458 7.603513 11.886512 -42.584946 0.000000 -0.000000 0.000000 -1.409347 4.565735 -42.772324 -0.127988 -9.901640 84.360054 3.831438 -10.242518 -39.422647 0.000000 -0.000000 0.000000 -1.819097 -0.269566 33.276005 2.603588 -2.535600 -8.101901 1.313485 -2.229101 0.434404 0.737764 -9.553408 3.811575 1.763510 1.241956 -12.354818 -28.876567 -3.456157 8.744005 -54.331278 -6.160088 2.060255 12.309983 -34.893179 0.782580 1.978372 2.054289 -10.614261 22.886878 8.728365 6.784569 55.077944 9.400030 7.972558 -12.182849 38.541369 2.469455 0.289205 1.070438 -5.495084 
1.136899 0.793881 0.800463 -80.414671 1.375732 90.747434 4.730475 -10.799427 -42.341444 -10.876642 0.068175 78.691526 7.668508 12.395916 -42.351012 0.000000 -0.000000 0.000000 -0.697354 3.330617 -38.493885 0.079107 -8.693114 79.882419 4.469491 -11.157075 -39.633326 0.000000 -0.000000 0.000000 -1.575661 -0.118506 32.968188 1.531057 -1.957824 -10.670335 1.116811 -1.767616 2.417611 1.265496 -8.528126 0.467008 0.956680 1.275967 -9.775160 -27.715145 -2.977355 7.449034 -53.202958 -5.130489 3.954988 8.760868 -39.603123 5.428949 2.378615 0.099228 -10.397029 21.227035 9.134221 4.845481 55.129043 8.502545 9.640267 -11.403983 42.110329 2.491705 0.929223 1.310346 -5.588215 
